<svg width="203" height="131" viewBox="0 0 203 131" fill="none" xmlns="http://www.w3.org/2000/svg">
<path d="M79.4256 121.88L80.1056 123H73.7456L73.0656 121.88L67.3056 112.2H63.1056V123H57.6656V95H71.2656C72.8123 95 74.239 95.3867 75.5456 96.16C76.879 96.9333 77.9323 97.9867 78.7056 99.32C79.479 100.627 79.8656 102.053 79.8656 103.6C79.8656 105.573 79.2656 107.333 78.0656 108.88C76.8656 110.4 75.3456 111.413 73.5056 111.92L79.4256 121.88ZM71.2656 106.76C72.119 106.76 72.8523 106.453 73.4656 105.84C74.1056 105.2 74.4256 104.453 74.4256 103.6C74.4256 102.747 74.1056 102.013 73.4656 101.4C72.8523 100.76 72.119 100.44 71.2656 100.44H63.1056V106.76H71.2656ZM85.4097 104.16C87.623 101.973 90.2764 100.88 93.3697 100.88C96.463 100.88 99.103 101.973 101.29 104.16C103.503 106.347 104.61 109 104.61 112.12C104.61 112.76 104.556 113.4 104.45 114.04H87.9297C88.3297 115.187 89.023 116.12 90.0097 116.84C90.9964 117.533 92.1164 117.88 93.3697 117.88C95.3164 117.88 96.863 117.107 98.0097 115.56H104.09C103.343 117.853 101.983 119.733 100.01 121.2C98.063 122.64 95.8497 123.36 93.3697 123.36C90.2764 123.36 87.623 122.267 85.4097 120.08C83.223 117.867 82.1297 115.213 82.1297 112.12C82.1297 109 83.223 106.347 85.4097 104.16ZM88.3297 109.28H98.4497C97.943 108.373 97.2364 107.653 96.3297 107.12C95.423 106.587 94.4364 106.32 93.3697 106.32C92.303 106.32 91.3164 106.587 90.4097 107.12C89.503 107.653 88.8097 108.373 88.3297 109.28ZM113.292 114.96C113.212 115.733 113.305 116.387 113.572 116.92C113.838 117.453 114.225 117.827 114.732 118.04C115.265 118.253 115.892 118.347 116.612 118.32C117.332 118.293 118.118 118.147 118.972 117.88V122.84C116.492 123.4 114.505 123.467 113.012 123.04C111.465 122.587 110.212 121.76 109.252 120.56C108.318 119.333 107.852 117.88 107.852 116.2V96.12H113.292V101.2H118.972V105.96H113.292V114.96ZM127.985 103.24L131.945 100.96C132.398 100.907 132.851 100.88 133.305 100.88C134.798 100.88 136.225 101.173 137.585 101.76L136.545 107.44C135.718 106.8 134.798 106.413 133.785 106.28C132.771 106.147 131.838 106.253 130.985 106.6C130.158 106.92 129.451 107.533 128.865 108.44C128.278 109.32 127.985 110.387 127.985 111.64V123H122.545V101.2H127.985V103.24ZM142.128 104.16C144.342 101.973 146.995 100.88 150.088 100.88C153.182 100.88 155.822 101.973 158.008 104.16C160.222 106.347 161.328 109 161.328 112.12C161.328 112.76 161.275 113.4 161.168 114.04H144.648C145.048 115.187 145.742 116.12 146.728 116.84C147.715 117.533 148.835 117.88 150.088 117.88C152.035 117.88 153.582 117.107 154.728 115.56H160.808C160.062 117.853 158.702 119.733 156.728 121.2C154.782 122.64 152.568 123.36 150.088 123.36C146.995 123.36 144.342 122.267 142.128 120.08C139.942 117.867 138.848 115.213 138.848 112.12C138.848 109 139.942 106.347 142.128 104.16ZM145.048 109.28H155.168C154.662 108.373 153.955 107.653 153.048 107.12C152.142 106.587 151.155 106.32 150.088 106.32C149.022 106.32 148.035 106.587 147.128 107.12C146.222 107.653 145.528 108.373 145.048 109.28ZM170.89 108.04C169.77 109.16 169.21 110.52 169.21 112.12C169.21 113.72 169.77 115.08 170.89 116.2C172.037 117.32 173.41 117.88 175.01 117.88C176.61 117.88 177.97 117.32 179.09 116.2C180.237 115.08 180.81 113.72 180.81 112.12C180.81 110.52 180.237 109.16 179.09 108.04C177.97 106.893 176.61 106.32 175.01 106.32C173.41 106.32 172.037 106.893 170.89 108.04ZM163.77 112.12C163.77 110.067 164.264 108.187 165.25 106.48C166.264 104.747 167.637 103.387 169.37 102.4C171.104 101.387 172.984 100.88 175.01 100.88C175.677 100.88 176.344 100.933 177.01 101.04L180.81 103.24V101.2H186.25V123H180.81V121L177.01 123.16C176.344 123.293 175.677 123.36 175.01 123.36C171.917 123.36 169.264 122.267 167.05 120.08C164.864 117.867 163.77 115.213 163.77 112.12ZM195.987 114.96C195.907 115.733 196 116.387 196.267 116.92C196.534 117.453 196.92 117.827 197.427 118.04C197.96 118.253 198.587 118.347 199.307 118.32C200.027 118.293 200.814 118.147 201.667 117.88V122.84C199.187 123.4 197.2 123.467 195.707 123.04C194.16 122.587 192.907 121.76 191.947 120.56C191.014 119.333 190.547 117.88 190.547 116.2V96.12H195.987V101.2H201.667V105.96H195.987V114.96Z" fill="white"/>
<path d="M28.4153 121.542C21.3684 120.526 19.3789 121.471 15.476 121.22L12.2837 126.638C12.0817 126.981 11.5797 126.962 11.4042 126.605L5.63543 114.871C5.58642 114.772 5.572 114.659 5.59445 114.55L9.04946 97.8075C8.72747 90.8054 10.6642 77.3935 15.9975 74.9318C16.1386 74.8666 16.3009 74.8805 16.4321 74.9638C23.2973 79.3205 25.8883 93.5485 27.7809 98.0513C30.2544 100.592 35.6835 112.417 36.346 113.871C36.3897 113.967 36.4013 114.073 36.3803 114.176L33.9039 126.295C33.8225 126.693 33.3243 126.833 33.0475 126.535L28.4153 121.542Z" fill="white"/>
<path d="M15.476 121.22C19.3789 121.471 21.3684 120.526 28.4153 121.542M15.476 121.22C13.286 116.762 10.8508 103.875 9.04946 97.8075M15.476 121.22L12.2837 126.638C12.0817 126.981 11.5797 126.962 11.4042 126.605L5.63543 114.871C5.58642 114.772 5.572 114.659 5.59445 114.55L9.04946 97.8075M28.4153 121.542L33.0475 126.535C33.3243 126.833 33.8225 126.693 33.9039 126.295L36.3803 114.176C36.4013 114.073 36.3897 113.967 36.346 113.871C35.6835 112.417 30.2544 100.592 27.7809 98.0513M28.4153 121.542C29.1845 116.864 28.2525 104.92 27.7809 98.0513M9.04946 97.8075C8.72747 90.8054 10.6642 77.3935 15.9975 74.9318C16.1386 74.8666 16.3009 74.8805 16.4321 74.9638C23.2973 79.3205 25.8883 93.5485 27.7809 98.0513" stroke="white"/>
<path fill-rule="evenodd" clip-rule="evenodd" d="M104.5 0C154.758 0 195.5 40.7421 195.5 91H192.513C192.127 42.3323 152.87 3 104.5 3C56.1302 3 16.8735 42.3323 16.487 91H13.5C13.5 40.7421 54.2421 0 104.5 0Z" fill="white"/>
<path d="M114.639 63H135.279V68.44H127.679V91H122.239V68.44H114.639V63ZM143.25 71.24L147.21 68.96C147.664 68.9067 148.117 68.88 148.57 68.88C151.53 68.88 154.064 69.9333 156.17 72.04C158.277 74.12 159.33 76.6533 159.33 79.64V91H153.85V79.64C153.85 78.1733 153.33 76.92 152.29 75.88C151.277 74.84 150.037 74.32 148.57 74.32C147.104 74.32 145.85 74.84 144.81 75.88C143.77 76.92 143.25 78.1733 143.25 79.64V91H137.81V62.48H143.25V71.24ZM165.558 72.16C167.771 69.9733 170.425 68.88 173.518 68.88C176.611 68.88 179.251 69.9733 181.438 72.16C183.651 74.3467 184.758 77 184.758 80.12C184.758 80.76 184.705 81.4 184.598 82.04H168.078C168.478 83.1867 169.171 84.12 170.158 84.84C171.145 85.5333 172.265 85.88 173.518 85.88C175.465 85.88 177.011 85.1067 178.158 83.56H184.238C183.491 85.8533 182.131 87.7333 180.158 89.2C178.211 90.64 175.998 91.36 173.518 91.36C170.425 91.36 167.771 90.2667 165.558 88.08C163.371 85.8667 162.278 83.2133 162.278 80.12C162.278 77 163.371 74.3467 165.558 72.16ZM168.478 77.28H178.598C178.091 76.3733 177.385 75.6533 176.478 75.12C175.571 74.5867 174.585 74.32 173.518 74.32C172.451 74.32 171.465 74.5867 170.558 75.12C169.651 75.6533 168.958 76.3733 168.478 77.28Z" fill="white"/>
</svg>
