<svg width="2845" height="2845" viewBox="0 0 2845 2845" fill="none" xmlns="http://www.w3.org/2000/svg">
<path fill-rule="evenodd" clip-rule="evenodd" d="M2845 1422.5C2845 2208.12 2208.12 2845 1422.5 2845C636.875 2845 0 2208.12 0 1422.5C0 636.875 636.875 0 1422.5 0C2208.12 0 2845 636.875 2845 1422.5ZM765.805 2333.82C933.932 2286.64 1074.3 2270.18 1313.34 2351.17L1435.2 2534.26C1445.02 2549.01 1467.16 2547.42 1474.78 2531.42L1643.3 2177.09C1645.58 2172.31 1646.19 2167.18 1644.89 2162.05C1629.59 2101.71 1526.73 1702.41 1459.53 1606.65L1457.59 1597.69C1374.8 1213.8 1339.74 1051.29 1134.46 857.333C1129.44 852.588 1122.44 850.275 1115.69 851.732C912.546 895.567 747.759 1329.42 708.965 1551.49L469.527 2052.2C467.118 2057.23 466.638 2062.98 468.178 2068.35L582.614 2467.29C587.39 2483.94 608.228 2489.4 620.55 2477.24L765.805 2333.82Z" fill="#EA175A"/>
</svg>
